<?xml version="1.0" encoding="UTF-8" standalone="no"?>
<!-- Created with Inkscape (http://www.inkscape.org/) -->

<svg
   width="1000"
   height="400"
   viewBox="0 0 100 40"
   version="1.1"
   id="svg1"
   xmlns:xlink="http://www.w3.org/1999/xlink"
   xmlns="http://www.w3.org/2000/svg"
   xmlns:svg="http://www.w3.org/2000/svg">
  <defs
     id="defs1">
    <linearGradient
       id="linearGradient45">
      <stop
         style="stop-color:#1aff33;stop-opacity:1;"
         offset="0"
         id="stop45" />
      <stop
         style="stop-color:#ff595e;stop-opacity:1;"
         offset="0"
         id="stop46" />
      <stop
         style="stop-color:#360f92;stop-opacity:1;"
         offset="1"
         id="stop47" />
    </linearGradient>
    <linearGradient
       id="swatch43">
      <stop
         style="stop-color:#000000;stop-opacity:1;"
         offset="0"
         id="stop43" />
    </linearGradient>
    <linearGradient
       id="swatch12">
      <stop
         style="stop-color:#0028fc;stop-opacity:1;"
         offset="0"
         id="stop13" />
    </linearGradient>
    <linearGradient
       xlink:href="#linearGradient45"
       id="linearGradient46"
       x1="160.09258"
       y1="679.28436"
       x2="956.79242"
       y2="679.28436"
       gradientUnits="userSpaceOnUse"
       gradientTransform="matrix(0.1,0,0,0.1,-5.339244,-12.48031)" />
    <linearGradient
       xlink:href="#linearGradient45"
       id="linearGradient52"
       gradientUnits="userSpaceOnUse"
       x1="160.09258"
       y1="679.28436"
       x2="956.79242"
       y2="679.28436"
       gradientTransform="matrix(0.1,0,0,0.1,-5.339244,-12.48031)" />
    <linearGradient
       xlink:href="#linearGradient45"
       id="linearGradient53"
       gradientUnits="userSpaceOnUse"
       x1="160.09258"
       y1="679.28436"
       x2="956.79242"
       y2="679.28436"
       gradientTransform="matrix(0.1,0,0,0.1,-5.339244,-12.48031)" />
    <linearGradient
       xlink:href="#linearGradient45"
       id="linearGradient54"
       gradientUnits="userSpaceOnUse"
       x1="160.09258"
       y1="679.28436"
       x2="956.79242"
       y2="679.28436"
       gradientTransform="matrix(0.1,0,0,0.1,-5.339244,-12.48031)" />
    <linearGradient
       xlink:href="#linearGradient45"
       id="linearGradient55"
       gradientUnits="userSpaceOnUse"
       x1="160.09258"
       y1="679.28436"
       x2="956.79242"
       y2="679.28436"
       gradientTransform="matrix(0.1,0,0,0.1,-5.339244,-12.48031)" />
    <linearGradient
       xlink:href="#linearGradient45"
       id="linearGradient56"
       gradientUnits="userSpaceOnUse"
       x1="160.09258"
       y1="679.28436"
       x2="956.79242"
       y2="679.28436"
       gradientTransform="matrix(0.1,0,0,0.1,-5.339244,-12.48031)" />
  </defs>
  <g
     id="layer1"
     transform="translate(-0.50500705,-33.448127)">
    <path
       id="path15"
       style="baseline-shift:baseline;display:inline;overflow:visible;vector-effect:none;fill:#ffffff;stroke-linecap:round;enable-background:accumulate;stop-color:#000000;stop-opacity:1"
       d="m 6.5050071,39.448126 v 30 H 94.505007 v -30 z m 2.5,1 h 2.9999999 v 2 H 9.0050071 Z m 3.9999999,0 h 3 v 2 h -3 z m 4,0 h 3 v 2 h -3 z m 4,0 h 3 v 2 h -3 z m 4,0 h 3 v 2 h -3 z m 4,0 h 3 v 2 h -3 z m 4,0 h 3 v 2 h -3 z m 4,0 h 3 v 2 h -3 z m 4,0 h 3 v 2 h -3 z m 4,0 h 3 v 2 h -3 z m 4,0 h 3 v 2 h -3 z m 4,0 h 3 v 2 h -3 z m 4,0 h 3 v 2 h -3 z m 4,0 h 3 v 2 h -3 z m 4,0 h 3 v 2 h -3 z m 4,0 h 3 v 2 h -3 z m 4,0 h 3 v 2 h -3 z m 4,0 h 3 v 2 h -3 z m 4,0 h 3 v 2 h -3 z m 4,0 h 3 v 2 h -3 z m 4,0 h 3 v 2 h -3 z" />
    <path
       style="font-size:100px;line-height:1;font-family:'CP Font';-inkscape-font-specification:'CP Font';white-space:pre;fill:url(#linearGradient46);stroke-width:0.1"
       d="m 13.520014,52.056253 h 1.3 c 1.45,0 2.47,-0.260001 3.07,-0.780001 0.6,-0.519999 0.9,-1.28 0.9,-2.259999 0,-0.990001 -0.3,-1.740001 -0.9,-2.26 -0.6,-0.520001 -1.62,-0.780001 -3.07,-0.780001 h -3.14 c -0.35,0 -0.61,0.09 -0.77,0.25 -0.16,0.17 -0.24,0.41 -0.24,0.730001 v 7.16 c 0,0.269999 0.07,0.459999 0.21,0.59 0.13,0.129999 0.35,0.189999 0.66,0.179999 h 0.95 c 0.31,-0.01 0.52,-0.07 0.65,-0.19 0.13,-0.12 0.19,-0.31 0.18,-0.579999 v -1.870001 c 0,-0.04 0.02,-0.09 0.05,-0.129999 0.03,-0.04 0.08,-0.06 0.15,-0.06 z m 2.46,-3.04 c 0,0.25 -0.09,0.419999 -0.27,0.519999 -0.17,0.11 -0.46,0.16 -0.85,0.16 h -1.34 c -0.07,0 -0.12,-0.03 -0.15,-0.07 -0.03,-0.04 -0.05,-0.08 -0.05,-0.13 v -0.95 c 0,-0.04 0.02,-0.09 0.05,-0.129999 0.03,-0.05 0.08,-0.07 0.15,-0.07 h 1.34 c 0.39,0 0.68,0.05 0.85,0.14 0.18,0.1 0.27,0.280001 0.27,0.53 z"
       id="path47" />
    <path
       style="font-size:100px;line-height:1;font-family:'CP Font';-inkscape-font-specification:'CP Font';white-space:pre;fill:url(#linearGradient56);stroke-width:0.1"
       d="m 19.210018,48.746252 v 5.38 c 0,0.27 0.07,0.46 0.21,0.590001 0.13,0.129999 0.35,0.19 0.65,0.179999 h 0.96 c 0.31,-0.01 0.52,-0.07 0.65,-0.189999 0.13,-0.120001 0.19,-0.310001 0.18,-0.580001 v -3.05 c 0.02,-0.25 0.09,-0.45 0.2,-0.59 0.12,-0.15 0.31,-0.219999 0.58,-0.219999 h 0.05 c 0.28,0 0.49,-0.07 0.62,-0.21 0.13,-0.130001 0.19,-0.35 0.17,-0.660001 v -0.66 c -0.01,-0.31 -0.08,-0.519999 -0.2,-0.65 -0.13,-0.129999 -0.32,-0.19 -0.59,-0.179999 h -0.17 c -0.36,0.01 -0.69,0.03 -1,0.09 -0.14,-0.07 -0.35,-0.1 -0.61,-0.09 h -0.87 c -0.31,0.01 -0.53,0.07 -0.65,0.189999 -0.13,0.120001 -0.19,0.34 -0.18,0.65 z m 7.339998,2.720001 v -0.130001 c 0,-0.369999 0.06,-0.64 0.19,-0.8 0.13,-0.169999 0.33,-0.25 0.6,-0.25 h 0.1 c 0.27,0 0.47,0.08 0.6,0.25 0.13,0.16 0.19,0.430001 0.19,0.8 v 0.130001 c 0,0.369999 -0.06,0.64 -0.19,0.8 -0.13,0.169999 -0.33,0.25 -0.6,0.25 h -0.1 c -0.27,0 -0.47,-0.08 -0.6,-0.25 -0.13,-0.16 -0.19,-0.430001 -0.19,-0.8 z m 4.34,0.169999 v -0.469999 c 0,-1.2 -0.29,-2.030001 -0.86,-2.51 -0.58,-0.470001 -1.4,-0.720001 -2.46,-0.730001 h -0.35 c -1.07,0.01 -1.89,0.26 -2.47,0.730001 -0.57,0.479999 -0.85,1.31 -0.85,2.51 v 0.469999 c 0,1.2 0.28,2.030001 0.85,2.51 0.58,0.470001 1.4,0.720001 2.47,0.73 h 0.35 c 1.05,-0.01 1.87,-0.259999 2.45,-0.73 0.58,-0.479999 0.87,-1.31 0.87,-2.51 z m 3.049997,-0.169999 v -0.130001 c 0,-0.369999 0.07,-0.64 0.19,-0.8 0.13,-0.169999 0.33,-0.25 0.6,-0.25 h 2.71 c 0.32,-0.01 0.54,-0.08 0.67,-0.21 0.12,-0.13 0.18,-0.369999 0.18,-0.73 v -0.589999 c -0.01,-0.310001 -0.07,-0.520001 -0.19,-0.65 -0.12,-0.130001 -0.34,-0.19 -0.66,-0.180001 h -2.83 c -1.07,0.01 -1.89,0.26 -2.47,0.730001 -0.57,0.479999 -0.85,1.31 -0.85,2.51 v 0.469999 c 0,1.2 0.28,2.030001 0.85,2.51 0.58,0.470001 1.4,0.720001 2.47,0.73 h 2.83 c 0.32,-0.01 0.54,-0.08 0.67,-0.209999 0.12,-0.130001 0.18,-0.370001 0.18,-0.730001 v -0.59 c -0.01,-0.31 -0.07,-0.52 -0.19,-0.65 -0.12,-0.129999 -0.34,-0.189999 -0.66,-0.179999 h -2.71 c -0.27,0 -0.47,-0.08 -0.6,-0.25 -0.12,-0.16 -0.19,-0.430001 -0.19,-0.8 z m 9.079997,-0.95 h -1.66 c 0.03,-0.240001 0.09,-0.41 0.18,-0.530001 0.13,-0.16 0.33,-0.25 0.6,-0.25 h 0.1 c 0.27,0 0.47,0.09 0.6,0.25 0.09,0.120001 0.16,0.29 0.18,0.530001 z m 1.84,2.579999 h -2.72 c -0.27,0 -0.47,-0.08 -0.6,-0.239999 -0.09,-0.120001 -0.15,-0.29 -0.18,-0.530001 h 3.51 c 0.3,0 0.51,-0.06 0.64,-0.19 0.12,-0.119999 0.18,-0.369999 0.18,-0.74 v -0.229999 c 0,-1.2 -0.29,-2.030001 -0.86,-2.51 -0.58,-0.470001 -1.4,-0.720001 -2.46,-0.730001 h -0.35 c -1.07,0.01 -1.89,0.26 -2.47,0.730001 -0.57,0.479999 -0.85,1.31 -0.85,2.51 v 0.469999 c 0,1.2 0.28,2.030001 0.85,2.51 0.58,0.470001 1.4,0.720001 2.47,0.73 h 2.84 c 0.3,0 0.51,-0.06 0.64,-0.19 0.12,-0.129999 0.18,-0.36 0.18,-0.71 v -0.05 c -0.02,-0.3 -0.08,-0.519999 -0.2,-0.65 -0.11,-0.119999 -0.32,-0.18 -0.62,-0.18 z m 3.96,-2.95 v -0.05 c 0,-0.129999 0.04,-0.229999 0.12,-0.279999 0.08,-0.05 0.21,-0.08 0.39,-0.08 h 2.94 c 0.3,0.01 0.5,-0.05 0.62,-0.179999 0.12,-0.120001 0.18,-0.34 0.2,-0.65 v -0.07 c 0,-0.35 -0.06,-0.579999 -0.18,-0.71 -0.13,-0.13 -0.34,-0.19 -0.64,-0.19 h -4.08 c -0.68,0.01 -1.2,0.170001 -1.56,0.470001 -0.36,0.3 -0.53,0.829999 -0.53,1.589999 v 0.3 c 0,0.760001 0.17,1.29 0.53,1.59 0.36,0.3 0.88,0.45 1.56,0.45 h 1.66 c 0.18,0 0.31,0.03 0.39,0.08 0.08,0.05 0.12,0.14 0.12,0.269999 v 0.06 c 0,0.13 -0.04,0.220001 -0.12,0.28 -0.08,0.05 -0.21,0.07 -0.39,0.07 h -2.93 c -0.3,0 -0.51,0.06 -0.63,0.18 -0.12,0.130001 -0.18,0.35 -0.19,0.65 v 0.08 c -0.01,0.35 0.05,0.579999 0.18,0.71 0.12,0.129999 0.34,0.19 0.64,0.19 h 4.07 c 0.68,-0.01 1.2,-0.170001 1.56,-0.470001 0.36,-0.3 0.54,-0.829999 0.54,-1.59 v -0.3 c 0,-0.76 -0.18,-1.3 -0.54,-1.589999 -0.36,-0.3 -0.88,-0.45 -1.56,-0.45 h -1.66 c -0.18,0 -0.31,-0.03 -0.39,-0.08 -0.08,-0.05 -0.12,-0.15 -0.12,-0.28 z m 7.399997,0 v -0.05 c 0,-0.129999 0.04,-0.229999 0.12,-0.279999 0.08,-0.05 0.21,-0.08 0.39,-0.08 h 2.94 c 0.3,0.01 0.5,-0.05 0.62,-0.179999 0.12,-0.120001 0.18,-0.34 0.2,-0.65 v -0.07 c 0,-0.35 -0.06,-0.579999 -0.18,-0.71 -0.13,-0.13 -0.34,-0.19 -0.64,-0.19 h -4.08 c -0.68,0.01 -1.2,0.170001 -1.56,0.470001 -0.36,0.3 -0.53,0.829999 -0.53,1.589999 v 0.3 c 0,0.760001 0.17,1.29 0.53,1.59 0.36,0.3 0.88,0.45 1.56,0.45 h 1.66 c 0.18,0 0.31,0.03 0.39,0.08 0.08,0.05 0.12,0.14 0.12,0.269999 v 0.06 c 0,0.13 -0.04,0.220001 -0.12,0.28 -0.08,0.05 -0.21,0.07 -0.39,0.07 h -2.93 c -0.3,0 -0.51,0.06 -0.63,0.18 -0.12,0.130001 -0.18,0.35 -0.19,0.65 v 0.08 c -0.01,0.35 0.05,0.579999 0.18,0.71 0.12,0.129999 0.34,0.19 0.64,0.19 h 4.07 c 0.68,-0.01 1.2,-0.170001 1.56,-0.470001 0.36,-0.3 0.54,-0.829999 0.54,-1.59 v -0.3 c 0,-0.76 -0.18,-1.3 -0.54,-1.589999 -0.36,-0.3 -0.88,-0.45 -1.56,-0.45 h -1.66 c -0.18,0 -0.31,-0.03 -0.39,-0.08 -0.08,-0.05 -0.12,-0.15 -0.12,-0.28 z m 7.329997,-1.4 c -0.01,-0.31 -0.08,-0.529999 -0.21,-0.66 -0.13,-0.129999 -0.38,-0.19 -0.74,-0.179999 h -0.87 c -0.31,0.01 -0.53,0.07 -0.65,0.189999 -0.13,0.120001 -0.19,0.34 -0.18,0.65 v 5.38 c 0,0.27 0.07,0.46 0.21,0.590001 0.13,0.129999 0.35,0.19 0.65,0.179999 h 0.96 c 0.31,-0.01 0.52,-0.07 0.65,-0.189999 0.13,-0.120001 0.19,-0.310001 0.18,-0.580001 z m 0,-2.07 c -0.01,-0.259999 -0.08,-0.44 -0.21,-0.54 -0.13,-0.1 -0.38,-0.15 -0.74,-0.15 h -0.87 c -0.31,0.01 -0.53,0.06 -0.65,0.16 -0.13,0.09 -0.19,0.270001 -0.18,0.53 v 0.03 c 0,0.26 0.07,0.45 0.21,0.55 0.13,0.1 0.35,0.15 0.65,0.139999 h 0.96 c 0.31,-0.01 0.52,-0.06 0.65,-0.15 0.13,-0.09 0.19,-0.279999 0.18,-0.539999 z m 3.079995,7.45 v -3.03 c 0.02,-0.25 0.09,-0.45 0.2,-0.589999 0.12,-0.15 0.31,-0.220001 0.58,-0.220001 h 0.1 c 0.27,0 0.47,0.08 0.6,0.25 0.13,0.16 0.19,0.430001 0.19,0.8 v 2.79 c -0.01,0.27 0.05,0.46 0.18,0.580001 0.13,0.119999 0.35,0.179999 0.65,0.189999 h 0.96 c 0.3,0.01 0.52,-0.05 0.66,-0.179999 0.13,-0.130001 0.2,-0.320001 0.21,-0.590001 v -2.959999 c 0,-1.2 -0.29,-2.030001 -0.86,-2.51 -0.58,-0.470001 -1.4,-0.720001 -2.46,-0.730001 h -0.35 c -0.24,0 -0.46,0.01 -0.67,0.04 -0.1,0.01 -0.2,0.03 -0.3,0.05 -0.14,-0.08 -0.36,-0.120001 -0.64,-0.11 h -0.88 c -0.3,0.01 -0.52,0.07 -0.64,0.189999 -0.13,0.120001 -0.19,0.34 -0.19,0.65 v 5.38 c 0.01,0.27 0.08,0.46 0.21,0.590001 0.14,0.129999 0.36,0.19 0.66,0.179999 h 0.96 c 0.31,-0.01 0.52,-0.07 0.65,-0.189999 0.13,-0.120001 0.19,-0.310001 0.18,-0.580001 z m 11.729994,-1.869999 v -3.580001 c -0.01,-0.269999 -0.08,-0.459999 -0.21,-0.59 -0.14,-0.129999 -0.36,-0.19 -0.66,-0.179999 h -0.96 c -0.21,0.01 -0.37,0.03 -0.5,0.09 -0.3,-0.04 -0.63,-0.07 -0.99,-0.07 h -0.35 c -1.07,0.01 -1.89,0.2 -2.47,0.55 -0.57,0.36 -0.85,0.990001 -0.85,1.9 v 0.36 c 0,0.91 0.28,1.54 0.85,1.9 0.58,0.35 1.4,0.54 2.47,0.54 h 0.35 c 0.21,0 0.42,-0.01 0.61,-0.03 -0.03,0.13 -0.08,0.23 -0.13,0.310001 -0.13,0.16 -0.34,0.239999 -0.61,0.239999 h -2.75 c -0.28,0.01 -0.49,0.08 -0.61,0.210001 -0.12,0.129999 -0.18,0.35 -0.18,0.66 v 0.109999 c 0,0.3 0.06,0.52 0.19,0.65 0.13,0.12 0.33,0.180001 0.6,0.180001 h 2.88 c 1.06,-0.02 1.88,-0.260001 2.46,-0.74 0.57,-0.470001 0.86,-1.31 0.86,-2.510001 z m -4.34,-1.65 v -0.1 c 0,-0.280001 0.06,-0.49 0.19,-0.610001 0.13,-0.12 0.33,-0.179999 0.6,-0.179999 h 0.1 c 0.27,0 0.48,0.06 0.61,0.179999 0.12,0.120001 0.18,0.33 0.18,0.610001 v 0.1 c 0,0.279999 -0.06,0.489999 -0.19,0.61 -0.13,0.119999 -0.33,0.179999 -0.6,0.179999 h -0.1 c -0.27,0 -0.47,-0.06 -0.6,-0.179999 -0.13,-0.120001 -0.19,-0.330001 -0.19,-0.61 z"
       id="path48" />
    <path
       style="font-size:100px;line-height:1;font-family:'CP Font';-inkscape-font-specification:'CP Font';white-space:pre;fill:url(#linearGradient55);stroke-width:0.1"
       d="m 10.690014,59.33 c 0.03,0.6 0.32,1.12 0.86,1.58 0.58,0.48 1.51,0.73 2.77,0.73 h 0.7 c 0.44,0.01 0.74,0.04 0.9,0.11 0.12,0.07 0.19,0.15 0.2,0.25 0,0.16 -0.07,0.29 -0.19,0.38 -0.16,0.11 -0.45,0.17 -0.88,0.18 h -0.58 c -0.44,-0.01 -0.74,-0.05 -0.89,-0.12 -0.16,-0.06 -0.24,-0.14 -0.25,-0.23 0,-0.1 -0.07,-0.2 -0.18,-0.32 -0.12,-0.11 -0.33,-0.17 -0.63,-0.17 h -1.01 c -0.32,0 -0.53,0.06 -0.65,0.17 -0.12,0.12 -0.17,0.33 -0.17,0.65 0,0.61 0.29,1.16 0.86,1.65 0.58,0.49 1.51,0.73 2.77,0.73 h 0.86 c 1.27,0 2.2,-0.24 2.77,-0.73 0.53,-0.45 0.81,-1.24 0.85,-2.38 v -0.29 c -0.04,-0.56 -0.32,-1.06 -0.86,-1.51 -0.58,-0.49 -1.5,-0.73 -2.76,-0.73 h -0.71 c -0.44,-0.01 -0.74,-0.05 -0.89,-0.12 -0.13,-0.05 -0.2,-0.13 -0.2,-0.25 0,-0.17 0.07,-0.31 0.2,-0.41 0.15,-0.1 0.44,-0.16 0.87,-0.16 h 0.57 c 0.44,0 0.74,0.04 0.9,0.11 0.16,0.07 0.24,0.15 0.24,0.24 0.01,0.09 0.07,0.2 0.19,0.31 0.12,0.12 0.33,0.18 0.62,0.18 h 1.02 c 0.31,0 0.53,-0.06 0.64,-0.18 0.12,-0.11 0.18,-0.33 0.18,-0.64 0,-0.61 -0.29,-1.16 -0.87,-1.65 -0.58,-0.49 -1.5,-0.74 -2.76,-0.74 h -0.86 c -1.28,0 -2.2,0.25 -2.78,0.74 -0.53,0.45 -0.82,1.25 -0.85,2.4 z"
       id="path49" />
    <path
       style="font-size:100px;line-height:1;font-family:'CP Font';-inkscape-font-specification:'CP Font';white-space:pre;fill:url(#linearGradient54);stroke-width:0.1"
       d="m 25.660018,59.8 c 0.36,-0.34 0.55,-0.71 0.55,-1.12 -0.01,-0.27 -0.08,-0.46 -0.21,-0.59 -0.14,-0.13 -0.36,-0.19 -0.66,-0.18 h -1.05 c -0.29,0.01 -0.5,0.06 -0.64,0.17 -0.13,0.12 -0.28,0.25 -0.45,0.39 l -1.33,1.18 v -2.82 c -0.01,-0.31 -0.08,-0.53 -0.21,-0.65 -0.13,-0.13 -0.38,-0.19 -0.74,-0.19 h -0.88 c -0.3,0.01 -0.52,0.07 -0.64,0.19 -0.13,0.13 -0.19,0.34 -0.19,0.65 v 7.3 c 0.01,0.27 0.08,0.46 0.21,0.59 0.14,0.13 0.36,0.19 0.66,0.18 h 0.96 c 0.31,-0.01 0.52,-0.07 0.65,-0.19 0.13,-0.12 0.19,-0.31 0.18,-0.58 v -0.97 l 1.33,1.17 c 0.17,0.15 0.32,0.28 0.45,0.4 0.14,0.11 0.35,0.16 0.64,0.17 h 1.05 c 0.3,0.01 0.52,-0.05 0.66,-0.18 0.13,-0.13 0.2,-0.32 0.21,-0.59 0,-0.41 -0.19,-0.79 -0.55,-1.12 l -1.81,-1.61 z m 5.269997,0.72 h -1.66 c 0.03,-0.24 0.09,-0.41 0.18,-0.53 0.13,-0.16 0.33,-0.25 0.6,-0.25 h 0.1 c 0.27,0 0.47,0.09 0.6,0.25 0.09,0.12 0.16,0.29 0.18,0.53 z m 1.84,2.58 h -2.72 c -0.27,0 -0.47,-0.08 -0.6,-0.24 -0.09,-0.12 -0.15,-0.29 -0.18,-0.53 h 3.51 c 0.3,0 0.51,-0.06 0.64,-0.19 0.12,-0.12 0.18,-0.37 0.18,-0.74 v -0.23 c 0,-1.2 -0.29,-2.03 -0.86,-2.51 -0.58,-0.47 -1.4,-0.72 -2.46,-0.73 h -0.35 c -1.07,0.01 -1.89,0.26 -2.47,0.73 -0.57,0.48 -0.85,1.31 -0.85,2.51 v 0.47 c 0,1.2 0.28,2.03 0.85,2.51 0.58,0.47 1.4,0.72 2.47,0.73 h 2.84 c 0.3,0 0.51,-0.06 0.64,-0.19 0.12,-0.13 0.18,-0.36 0.18,-0.71 v -0.05 c -0.02,-0.3 -0.08,-0.52 -0.2,-0.65 -0.11,-0.12 -0.32,-0.18 -0.62,-0.18 z m 6.209999,-2.84 c 0.31,0 0.53,-0.06 0.65,-0.19 0.12,-0.13 0.19,-0.35 0.19,-0.66 v -0.66 c 0,-0.31 -0.07,-0.53 -0.19,-0.66 -0.12,-0.13 -0.34,-0.19 -0.65,-0.19 h -0.8 v -0.52 c 0.01,-0.27 -0.05,-0.46 -0.18,-0.58 -0.12,-0.12 -0.34,-0.18 -0.65,-0.19 h -0.95 c -0.31,-0.01 -0.53,0.05 -0.66,0.18 -0.13,0.13 -0.2,0.32 -0.21,0.59 v 0.52 h -0.69 c -0.32,0 -0.54,0.06 -0.66,0.19 -0.12,0.13 -0.18,0.35 -0.18,0.66 v 0.58 c 0,0.36 0.06,0.61 0.18,0.74 0.12,0.13 0.34,0.19 0.66,0.19 h 0.69 v 1.38 c 0,1.2 0.28,2.03 0.86,2.51 0.57,0.47 1.39,0.72 2.46,0.73 h 0.17 c 0.27,0.01 0.47,-0.05 0.59,-0.18 0.12,-0.13 0.19,-0.34 0.21,-0.65 v -0.66 c 0.01,-0.31 -0.05,-0.53 -0.18,-0.66 -0.13,-0.14 -0.34,-0.21 -0.62,-0.21 h -0.04 c -0.28,0 -0.48,-0.08 -0.6,-0.23 -0.13,-0.15 -0.2,-0.39 -0.2,-0.7 v -1.33 z m 3.899992,1.21 v -0.13 c 0,-0.37 0.07,-0.64 0.19,-0.8 0.13,-0.17 0.33,-0.25 0.6,-0.25 h 2.71 c 0.32,-0.01 0.54,-0.08 0.67,-0.21 0.12,-0.13 0.18,-0.37 0.18,-0.73 v -0.59 c -0.01,-0.31 -0.07,-0.52 -0.19,-0.65 -0.12,-0.13 -0.34,-0.19 -0.66,-0.18 h -2.83 c -1.07,0.01 -1.89,0.26 -2.47,0.73 -0.57,0.48 -0.85,1.31 -0.85,2.51 v 0.47 c 0,1.2 0.28,2.03 0.85,2.51 0.58,0.47 1.4,0.72 2.47,0.73 h 2.83 c 0.32,-0.01 0.54,-0.08 0.67,-0.21 0.12,-0.13 0.18,-0.37 0.18,-0.73 v -0.59 c -0.01,-0.31 -0.07,-0.52 -0.19,-0.65 -0.12,-0.13 -0.34,-0.19 -0.66,-0.18 h -2.71 c -0.27,0 -0.47,-0.08 -0.6,-0.25 -0.12,-0.16 -0.19,-0.43 -0.19,-0.8 z m 7.419997,-4.64 c -0.01,-0.31 -0.08,-0.53 -0.21,-0.65 -0.13,-0.13 -0.38,-0.19 -0.74,-0.19 h -0.88 c -0.3,0.01 -0.52,0.07 -0.64,0.19 -0.13,0.13 -0.19,0.34 -0.19,0.65 v 7.3 c 0.01,0.27 0.08,0.46 0.21,0.59 0.14,0.13 0.36,0.19 0.66,0.18 h 0.96 c 0.31,-0.01 0.52,-0.07 0.65,-0.19 0.13,-0.12 0.19,-0.31 0.18,-0.58 v -2.79 c 0,-0.37 0.07,-0.64 0.2,-0.8 0.12,-0.17 0.32,-0.25 0.59,-0.25 h 0.1 c 0.27,0 0.48,0.08 0.61,0.25 0.12,0.16 0.18,0.43 0.18,0.8 v 2.79 c -0.01,0.27 0.05,0.46 0.18,0.58 0.13,0.12 0.34,0.18 0.65,0.19 h 0.96 c 0.3,0.01 0.52,-0.05 0.66,-0.18 0.13,-0.13 0.2,-0.32 0.21,-0.59 v -2.96 c 0,-1.2 -0.29,-2.03 -0.86,-2.51 -0.58,-0.47 -1.4,-0.72 -2.46,-0.73 h -0.35 c -0.24,0 -0.46,0.01 -0.67,0.04 z"
       id="path50" />
    <path
       style="font-size:100px;line-height:1;font-family:'CP Font';-inkscape-font-specification:'CP Font';white-space:pre;fill:url(#linearGradient53);stroke-width:0.1"
       d="m 65.31,58.81 c 0,0.21 -0.09,0.35 -0.27,0.42 -0.17,0.08 -0.46,0.11 -0.85,0.11 h -1.34 c -0.07,0 -0.12,-0.02 -0.15,-0.06 -0.03,-0.04 -0.05,-0.09 -0.05,-0.13 v -0.71 c 0,-0.05 0.02,-0.1 0.05,-0.14 0.03,-0.05 0.08,-0.07 0.15,-0.07 h 1.34 c 0.39,0 0.68,0.04 0.85,0.11 0.18,0.07 0.27,0.23 0.27,0.47 z m 0,3.3 c 0,0.24 -0.09,0.39 -0.27,0.47 -0.17,0.07 -0.46,0.1 -0.85,0.1 h -1.34 c -0.07,0 -0.12,-0.02 -0.15,-0.06 -0.03,-0.05 -0.05,-0.1 -0.05,-0.14 v -0.71 c 0,-0.05 0.02,-0.09 0.05,-0.14 0.03,-0.04 0.08,-0.06 0.15,-0.06 h 1.34 c 0.39,0 0.68,0.04 0.85,0.11 0.18,0.08 0.27,0.22 0.27,0.43 z m 2.81,0.41 c 0,-0.96 -0.34,-1.65 -1.01,-2.06 0.67,-0.42 1.01,-1.11 1.01,-2.06 0,-0.76 -0.3,-1.35 -0.9,-1.77 C 66.62,56.21 65.6,56 64.15,56 H 61.01 C 60.66,56 60.4,56.09 60.24,56.25 60.08,56.42 60,56.66 60,56.98 v 6.95 c 0,0.32 0.08,0.57 0.24,0.73 0.16,0.17 0.42,0.25 0.77,0.25 h 3.14 c 1.45,0 2.47,-0.21 3.07,-0.63 0.6,-0.42 0.9,-1.01 0.9,-1.76 z"
       id="path51" />
    <path
       style="font-size:100px;line-height:1;font-family:'CP Font';-inkscape-font-specification:'CP Font';white-space:pre;fill:url(#linearGradient52);stroke-width:0.1"
       d="m 71.190006,61.47 v -0.13 c 0,-0.37 0.06,-0.64 0.19,-0.8 0.13,-0.17 0.33,-0.25 0.6,-0.25 h 0.1 c 0.27,0 0.47,0.08 0.6,0.25 0.13,0.16 0.19,0.43 0.19,0.8 v 0.13 c 0,0.37 -0.06,0.64 -0.19,0.8 -0.13,0.17 -0.33,0.25 -0.6,0.25 h -0.1 c -0.27,0 -0.47,-0.08 -0.6,-0.25 -0.13,-0.16 -0.19,-0.43 -0.19,-0.8 z m 4.34,0.17 v -0.47 c 0,-1.2 -0.29,-2.03 -0.86,-2.51 -0.58,-0.47 -1.4,-0.72 -2.46,-0.73 h -0.35 c -1.07,0.01 -1.89,0.26 -2.47,0.73 -0.57,0.48 -0.85,1.31 -0.85,2.51 v 0.47 c 0,1.2 0.28,2.03 0.85,2.51 0.58,0.47 1.4,0.72 2.47,0.73 h 0.35 c 1.05,-0.01 1.87,-0.26 2.45,-0.73 0.58,-0.48 0.87,-1.31 0.87,-2.51 z M 78.59,61.47 v -0.13 c 0,-0.37 0.06,-0.64 0.19,-0.8 0.13,-0.17 0.33,-0.25 0.6,-0.25 h 0.1 c 0.27,0 0.47,0.08 0.6,0.25 0.13,0.16 0.19,0.43 0.19,0.8 v 0.13 c 0,0.37 -0.06,0.64 -0.19,0.8 -0.13,0.17 -0.33,0.25 -0.6,0.25 h -0.1 c -0.27,0 -0.47,-0.08 -0.6,-0.25 -0.13,-0.16 -0.19,-0.43 -0.19,-0.8 z m 4.34,0.17 v -0.47 c 0,-1.2 -0.29,-2.03 -0.86,-2.51 -0.58,-0.47 -1.4,-0.72 -2.46,-0.73 h -0.35 c -1.07,0.01 -1.89,0.26 -2.47,0.73 -0.57,0.48 -0.85,1.31 -0.85,2.51 v 0.47 c 0,1.2 0.28,2.03 0.85,2.51 0.58,0.47 1.4,0.72 2.47,0.73 h 0.35 c 1.05,-0.01 1.87,-0.26 2.45,-0.73 0.58,-0.48 0.87,-1.31 0.87,-2.51 z m 6.86,-1.84 c 0.36,-0.34 0.55,-0.71 0.55,-1.12 -0.01,-0.27 -0.08,-0.46 -0.21,-0.59 -0.14,-0.13 -0.36,-0.19 -0.66,-0.18 h -1.05 c -0.29,0.01 -0.5,0.06 -0.64,0.17 -0.13,0.12 -0.28,0.25 -0.45,0.39 L 86,59.65 V 56.83 C 85.99,56.52 85.92,56.3 85.79,56.18 85.66,56.05 85.41,55.99 85.05,55.99 h -0.88 c -0.3,0.01 -0.52,0.07 -0.64,0.19 -0.13,0.13 -0.19,0.34 -0.19,0.65 v 7.3 c 0.01,0.27 0.08,0.46 0.21,0.59 0.14,0.13 0.36,0.19 0.66,0.18 h 0.96 c 0.31,-0.01 0.52,-0.07 0.65,-0.19 0.13,-0.12 0.19,-0.31 0.18,-0.58 v -0.97 l 1.33,1.17 c 0.17,0.15 0.32,0.28 0.45,0.4 0.14,0.11 0.35,0.16 0.64,0.17 h 1.05 c 0.3,0.01 0.52,-0.05 0.66,-0.18 0.13,-0.13 0.2,-0.32 0.21,-0.59 0,-0.41 -0.19,-0.79 -0.55,-1.12 L 87.98,61.4 Z"
       id="path52" />
    <rect
       style="fill:#b4b4b4;fill-opacity:1;stroke-width:1.2;stroke-linecap:round"
       id="rect13"
       width="2"
       height="4"
       x="9.5050068"
       y="37.448128" />
    <rect
       style="fill:#b4b4b4;fill-opacity:1;stroke-width:1.2;stroke-linecap:round"
       id="rect13-5"
       width="2"
       height="4"
       x="13.505007"
       y="37.448128" />
    <rect
       style="fill:#b4b4b4;fill-opacity:1;stroke-width:1.2;stroke-linecap:round"
       id="rect13-1"
       width="2"
       height="4"
       x="17.505007"
       y="37.448128" />
    <rect
       style="fill:#b4b4b4;fill-opacity:1;stroke-width:1.2;stroke-linecap:round"
       id="rect13-6"
       width="2"
       height="4"
       x="21.505007"
       y="37.448128" />
    <rect
       style="fill:#b4b4b4;fill-opacity:1;stroke-width:1.2;stroke-linecap:round"
       id="rect13-8"
       width="2"
       height="4"
       x="25.505007"
       y="37.448128" />
    <rect
       style="fill:#b4b4b4;fill-opacity:1;stroke-width:1.2;stroke-linecap:round"
       id="rect13-3"
       width="2"
       height="4"
       x="29.505007"
       y="37.448128" />
    <rect
       style="fill:#b4b4b4;fill-opacity:1;stroke-width:1.2;stroke-linecap:round"
       id="rect13-0"
       width="2"
       height="4"
       x="33.505009"
       y="37.448128" />
    <rect
       style="fill:#b4b4b4;fill-opacity:1;stroke-width:1.2;stroke-linecap:round"
       id="rect13-83"
       width="2"
       height="4"
       x="37.505009"
       y="37.448128" />
    <rect
       style="fill:#b4b4b4;fill-opacity:1;stroke-width:1.2;stroke-linecap:round"
       id="rect13-5-8"
       width="2"
       height="4"
       x="41.505009"
       y="37.448128" />
    <rect
       style="fill:#b4b4b4;fill-opacity:1;stroke-width:1.2;stroke-linecap:round"
       id="rect13-1-3"
       width="2"
       height="4"
       x="45.505009"
       y="37.448128" />
    <rect
       style="fill:#b4b4b4;fill-opacity:1;stroke-width:1.2;stroke-linecap:round"
       id="rect13-6-7"
       width="2"
       height="4"
       x="49.505009"
       y="37.448128" />
    <rect
       style="fill:#b4b4b4;fill-opacity:1;stroke-width:1.2;stroke-linecap:round"
       id="rect13-8-1"
       width="2"
       height="4"
       x="53.505009"
       y="37.448128" />
    <rect
       style="fill:#b4b4b4;fill-opacity:1;stroke-width:1.2;stroke-linecap:round"
       id="rect13-3-0"
       width="2"
       height="4"
       x="57.505009"
       y="37.448128" />
    <rect
       style="fill:#b4b4b4;fill-opacity:1;stroke-width:1.2;stroke-linecap:round"
       id="rect13-0-7"
       width="2"
       height="4"
       x="61.505009"
       y="37.448128" />
    <rect
       style="fill:#b4b4b4;fill-opacity:1;stroke-width:1.2;stroke-linecap:round"
       id="rect13-65"
       width="2"
       height="4"
       x="65.505005"
       y="37.448128" />
    <rect
       style="fill:#b4b4b4;fill-opacity:1;stroke-width:1.2;stroke-linecap:round"
       id="rect13-5-1"
       width="2"
       height="4"
       x="69.505005"
       y="37.448128" />
    <rect
       style="fill:#b4b4b4;fill-opacity:1;stroke-width:1.2;stroke-linecap:round"
       id="rect13-1-0"
       width="2"
       height="4"
       x="73.505005"
       y="37.448128" />
    <rect
       style="fill:#b4b4b4;fill-opacity:1;stroke-width:1.2;stroke-linecap:round"
       id="rect13-6-9"
       width="2"
       height="4"
       x="77.505005"
       y="37.448128" />
    <rect
       style="fill:#b4b4b4;fill-opacity:1;stroke-width:1.2;stroke-linecap:round"
       id="rect13-8-9"
       width="2"
       height="4"
       x="81.505005"
       y="37.448128" />
    <rect
       style="fill:#b4b4b4;fill-opacity:1;stroke-width:1.2;stroke-linecap:round"
       id="rect13-3-6"
       width="2"
       height="4"
       x="85.505005"
       y="37.448128" />
    <rect
       style="fill:#b4b4b4;fill-opacity:1;stroke-width:1.2;stroke-linecap:round"
       id="rect13-0-8"
       width="2"
       height="4"
       x="89.505005"
       y="37.448128" />
  </g>
</svg>
