<?xml version="1.0" encoding="UTF-8" standalone="no"?>
<!-- Created with Inkscape (http://www.inkscape.org/) -->

<svg
   version="1.1"
   id="svg1"
   width="1000"
   height="1000"
   viewBox="0 0 1000 1000"
   sodipodi:docname="ssjs.svg"
   inkscape:version="1.3.2 (091e20ef0f, 2023-11-25)"
   inkscape:export-filename="ssjs.png"
   inkscape:export-xdpi="96"
   inkscape:export-ydpi="96"
   xmlns:inkscape="http://www.inkscape.org/namespaces/inkscape"
   xmlns:sodipodi="http://sodipodi.sourceforge.net/DTD/sodipodi-0.dtd"
   xmlns:xlink="http://www.w3.org/1999/xlink"
   xmlns="http://www.w3.org/2000/svg"
   xmlns:svg="http://www.w3.org/2000/svg">
  <defs
     id="defs1">
    <linearGradient
       id="linearGradient10"
       inkscape:collect="always">
      <stop
         style="stop-color:#41944a;stop-opacity:1;"
         offset="0"
         id="stop10" />
      <stop
         style="stop-color:#5ecf6a;stop-opacity:1;"
         offset="1"
         id="stop11" />
    </linearGradient>
    <linearGradient
       id="linearGradient8"
       inkscape:collect="always">
      <stop
         style="stop-color:#50b15a;stop-opacity:1;"
         offset="0"
         id="stop8" />
      <stop
         style="stop-color:#66df73;stop-opacity:1;"
         offset="1"
         id="stop9" />
    </linearGradient>
    <inkscape:path-effect
       effect="fillet_chamfer"
       id="path-effect5"
       is_visible="true"
       lpeversion="1"
       nodesatellites_param="F,0,0,1,0,0,0,1 @ F,0,0,1,0,80,0,1 @ F,0,0,1,0,80,0,1 @ F,0,0,1,0,20,0,1 @ F,0,0,1,0,20,0,1 @ F,0,0,1,0,40,0,1 @ F,0,0,1,0,40,0,1 @ F,0,0,1,0,0,0,1 @ F,0,0,1,0,20,0,1 @ F,0,0,1,0,20,0,1"
       radius="0"
       unit="px"
       method="auto"
       mode="F"
       chamfer_steps="1"
       flexible="false"
       use_knot_distance="true"
       apply_no_radius="true"
       apply_with_radius="true"
       only_selected="false"
       hide_knots="false" />
    <inkscape:path-effect
       effect="fillet_chamfer"
       id="path-effect4"
       is_visible="true"
       lpeversion="1"
       nodesatellites_param="F,0,0,1,0,20,0,1 @ F,0,0,1,0,20,0,1 @ F,0,0,1,0,40,0,1 @ F,0,0,1,0,40,0,1 @ F,0,0,1,0,80,0,1 @ F,0,0,1,0,80,0,1 @ F,0,0,1,0,20,0,1 @ F,0,0,1,0,20,0,1 @ F,0,0,1,0,40,0,1 @ F,0,0,1,0,40,0,1 @ F,0,0,1,0,80,0,1 @ F,0,0,1,0,80,0,1"
       radius="0"
       unit="px"
       method="auto"
       mode="F"
       chamfer_steps="1"
       flexible="false"
       use_knot_distance="true"
       apply_no_radius="true"
       apply_with_radius="true"
       only_selected="false"
       hide_knots="false" />
    <inkscape:path-effect
       effect="fillet_chamfer"
       id="path-effect4-6"
       is_visible="true"
       lpeversion="1"
       nodesatellites_param="F,0,0,1,0,20,0,1 @ F,0,0,1,0,20,0,1 @ F,0,0,1,0,40,0,1 @ F,0,0,1,0,40,0,1 @ F,0,0,1,0,80,0,1 @ F,0,0,1,0,80,0,1 @ F,0,0,1,0,20,0,1 @ F,0,0,1,0,20,0,1 @ F,0,0,1,0,40,0,1 @ F,0,0,1,0,40,0,1 @ F,0,0,1,0,80,0,1 @ F,0,0,1,0,80,0,1"
       radius="0"
       unit="px"
       method="auto"
       mode="F"
       chamfer_steps="1"
       flexible="false"
       use_knot_distance="true"
       apply_no_radius="true"
       apply_with_radius="true"
       only_selected="false"
       hide_knots="false" />
    <inkscape:path-effect
       effect="fillet_chamfer"
       id="path-effect4-7"
       is_visible="true"
       lpeversion="1"
       nodesatellites_param="F,0,0,1,0,20,0,1 @ F,0,0,1,0,20,0,1 @ F,0,0,1,0,40,0,1 @ F,0,0,1,0,40,0,1 @ F,0,0,1,0,80,0,1 @ F,0,0,1,0,80,0,1 @ F,0,0,1,0,20,0,1 @ F,0,0,1,0,20,0,1 @ F,0,0,1,0,40,0,1 @ F,0,0,1,0,40,0,1 @ F,0,0,1,0,80,0,1 @ F,0,0,1,0,80,0,1"
       radius="0"
       unit="px"
       method="auto"
       mode="F"
       chamfer_steps="1"
       flexible="false"
       use_knot_distance="true"
       apply_no_radius="true"
       apply_with_radius="true"
       only_selected="false"
       hide_knots="false" />
    <linearGradient
       inkscape:collect="always"
       xlink:href="#linearGradient8"
       id="linearGradient9"
       x1="540"
       y1="340"
       x2="864"
       y2="340"
       gradientUnits="userSpaceOnUse" />
    <linearGradient
       inkscape:collect="always"
       xlink:href="#linearGradient10"
       id="linearGradient11"
       x1="116"
       y1="660"
       x2="440"
       y2="660"
       gradientUnits="userSpaceOnUse" />
  </defs>
  <sodipodi:namedview
     id="namedview1"
     pagecolor="#505050"
     bordercolor="#eeeeee"
     borderopacity="1"
     inkscape:showpageshadow="0"
     inkscape:pageopacity="0"
     inkscape:pagecheckerboard="0"
     inkscape:deskcolor="#505050"
     showgrid="true"
     inkscape:zoom="0.821"
     inkscape:cx="451.88794"
     inkscape:cy="383.06943"
     inkscape:window-width="1920"
     inkscape:window-height="1017"
     inkscape:window-x="1912"
     inkscape:window-y="1072"
     inkscape:window-maximized="1"
     inkscape:current-layer="svg1">
    <sodipodi:guide
       position="0,1000"
       orientation="0,1000"
       id="guide1"
       inkscape:locked="false" />
    <sodipodi:guide
       position="1000,1000"
       orientation="1000,0"
       id="guide2"
       inkscape:locked="false" />
    <sodipodi:guide
       position="1000,0"
       orientation="0,-1000"
       id="guide3"
       inkscape:locked="false" />
    <sodipodi:guide
       position="0,0"
       orientation="-1000,0"
       id="guide4"
       inkscape:locked="false" />
    <inkscape:grid
       id="grid4"
       units="px"
       originx="500"
       originy="500"
       spacingx="20"
       spacingy="20"
       empcolor="#ff00ff"
       empopacity="0.30196078"
       color="#00ff00"
       opacity="0.14901961"
       empspacing="2"
       dotted="false"
       gridanglex="30"
       gridanglez="30"
       visible="true" />
  </sodipodi:namedview>
  <g
     inkscape:groupmode="layer"
     id="layer1"
     inkscape:label="logo"
     transform="matrix(1,0,-0.3,1,150,0)">
    <path
       style="display:inline;fill:#50b25a;fill-opacity:1"
       d="m 340,320 a 20,20 135 0 1 -20,20 H 220 a 40,40 135 0 0 -40,40 40,40 45 0 0 40,40 h 40 a 80,80 45 0 1 80,80 80,80 135 0 1 -80,80 H 160 a 20,20 45 0 1 -20,-20 20,20 135 0 1 20,-20 h 100 a 40,40 135 0 0 40,-40 40,40 45 0 0 -40,-40 h -40 a 80,80 45 0 1 -80,-80 80,80 135 0 1 80,-80 h 100 a 20,20 45 0 1 20,20 z"
       id="path4"
       inkscape:path-effect="#path-effect4"
       inkscape:original-d="m 340,300 v 40 H 180 v 80 H 340 V 580 H 140 V 540 H 300 V 460 H 140 V 300 Z"
       transform="translate(-20)" />
    <path
       style="display:inline;fill:#5ecf6a;fill-opacity:1"
       d="m 340,320 a 20,20 135 0 1 -20,20 H 220 a 40,40 135 0 0 -40,40 40,40 45 0 0 40,40 h 40 a 80,80 45 0 1 80,80 80,80 135 0 1 -80,80 H 160 a 20,20 45 0 1 -20,-20 20,20 135 0 1 20,-20 h 100 a 40,40 135 0 0 40,-40 40,40 45 0 0 -40,-40 h -40 a 80,80 45 0 1 -80,-80 80,80 135 0 1 80,-80 h 100 a 20,20 45 0 1 20,20 z"
       id="path4-3"
       inkscape:path-effect="#path-effect4-6"
       inkscape:original-d="m 340,300 v 40 H 180 v 80 H 340 V 580 H 140 V 540 H 300 V 460 H 140 V 300 Z"
       transform="translate(180)" />
    <path
       style="display:inline;fill:#57c062;fill-opacity:1"
       d="m 340,320 a 20,20 135 0 1 -20,20 H 220 a 40,40 135 0 0 -40,40 40,40 45 0 0 40,40 h 40 a 80,80 45 0 1 80,80 80,80 135 0 1 -80,80 H 160 a 20,20 45 0 1 -20,-20 20,20 135 0 1 20,-20 h 100 a 40,40 135 0 0 40,-40 40,40 45 0 0 -40,-40 h -40 a 80,80 45 0 1 -80,-80 80,80 135 0 1 80,-80 h 100 a 20,20 45 0 1 20,20 z"
       id="path4-0"
       inkscape:path-effect="#path-effect4-7"
       inkscape:original-d="m 340,300 v 40 H 180 v 80 H 340 V 580 H 140 V 540 H 300 V 460 H 140 V 300 Z"
       transform="translate(540,120)" />
    <path
       style="display:inline;fill:#50b15a;fill-opacity:1"
       d="m 660,420 v 200 a 80,80 135 0 1 -80,80 h -40 a 80,80 45 0 1 -80,-80 20,20 135 0 1 20,-20 20,20 45 0 1 20,20 40,40 45 0 0 40,40 h 40 a 40,40 135 0 0 40,-40 V 460 h -60 a 20,20 45 0 1 -20,-20 20,20 135 0 1 20,-20 z"
       id="path5"
       inkscape:path-effect="#path-effect5"
       inkscape:original-d="M 660,420 V 700 H 460 V 600 h 40 v 60 H 620 V 460 h -80 v -40 z" />
    <circle
       style="fill:#48a352;fill-opacity:1"
       id="path6"
       cx="560"
       cy="560"
       r="40" />
    <path
       style="fill:url(#linearGradient9);fill-opacity:1"
       d="m 544,380 -4,-80 324,80 z"
       id="path7" />
    <path
       style="fill:url(#linearGradient11);fill-opacity:1"
       d="m 436,620 4,80 -324,-80 z"
       id="path8" />
  </g>
</svg>
